# xmcd
#
# Track frame offsets:
#	150
#	14370
#	27539
#	39907
#	54237
#	68512
#	81893
#	94880
#	109534
#	123370
#	137564
#	151582
#	167264
#	180172
#	195266
#	208194
#	214680
#	228477
#	245475
#	257657
#	270768
#	285202
#	304153
#
# Disc length: 4238 seconds
# Revision: 3
# Processed by: cddbd v1.5.2PL0 Copyright (c) Steve Scherf et al.
# Submitted via: dBpowerAMP V12.0
#
DISCID=1a108c17
DTITLE=Various Artist - Kentucky Mountain Music, Disc 2
DYEAR=2003
DGENRE=Folk
TTITLE0=Burnett and Rutherford - Curley Headed Woman
TTITLE1=Jimmy Johnson's String Band - Gate to Go Through
TTITLE2=Martin and Roberts - Hot Corn
TTITLE3=Taylor, Moore and Burnett - Grandma's Rag
TTITLE4=Rutherford and Foster - I'm as Free Little Birdie as Can Be
TTITLE5=Tod Gossett's Band - Rocky Mountain Goat
TTITLE6=Green Bailey - Shut Up in Coal Creek Mine
TTITLE7=Crockett Family Mountaineers - Sugar in My Coffee
TTITLE8=Buell Kazee - The Butcher's Boy (The Railroad Boy)
TTITLE9=Fiddlin' Doc Roberts - New Money
TTITLE10=Burnett and Rutherford - Pearl Bryan
TTITLE11=Kentucky String Ticklers - Crooked John
TTITLE12=Daw Henson - The Moonshiner
TTITLE13=J.W. Day - Forked Deer
TTITLE14=Taylor's Kentucky Boys - The Dixie Cowboy
TTITLE15=Walter Williams - Mississippi Sawyer
TTITLE16=Rutherford and Foster - Six Months Ain't Long
TTITLE17=Ed Morrison - Blackberry Blossom
TTITLE18=Theophilus Hoskins - Ellen Smith
TTITLE19=Henry L. Bandy - Five Up
TTITLE20=Pete Steele - Payday at Coal Creek
TTITLE21=Justus Begley - Golden Willow Tree
TTITLE22=Elizabeth Flatt, Martha Williams and Alice Williams - The Last Appeal
EXTD=
EXTT0=
EXTT1=
EXTT2=
EXTT3=
EXTT4=
EXTT5=
EXTT6=
EXTT7=
EXTT8=
EXTT9=
EXTT10=
EXTT11=
EXTT12=
EXTT13=
EXTT14=
EXTT15=
EXTT16=
EXTT17=
EXTT18=
EXTT19=
EXTT20=
EXTT21=
EXTT22=
PLAYORDER=
